PathFileType	4	(X/Y/Z)	/Users/itak/Documents/Research/Walk-IL/dataset/trc/00477_00167.trc
DataRate	CameraRate	NumFrames	NumMarkers	Units	OrigDataRate	OrigDataStartFrame	OrigNumFrames
100.000000	100.000000	4	53	mm	100.000000	0	606
Frame#	Time	RPSI			LPSI			L3			STRN			T10			C7			CLAV			RBAK			LBAK			LSHO			LUPA			LAEL			LAOL			LWTS			LWPS			LFRA			LIFD			LHPS			LHTS			RSHO			RUPA			RAEL			RAOL			RWTS			RWPS			RFRA			RIFD			RHTS			RHPS			RBHD			LFHD			RFHD			LBHD			LHIP			RHIP			RASI			LASI			LKNE			LTHI			LANK			LTIP			LTOE			LMT1			LMT5			LHEE			RKNE			RTHI			RANK			RTIP			RTOE			RMT1			RMT5			RHEE			
		X1	Y1	Z1	X2	Y2	Z2	X3	Y3	Z3	X4	Y4	Z4	X5	Y5	Z5	X6	Y6	Z6	X7	Y7	Z7	X8	Y8	Z8	X9	Y9	Z9	X10	Y10	Z10	X11	Y11	Z11	X12	Y12	Z12	X13	Y13	Z13	X14	Y14	Z14	X15	Y15	Z15	X16	Y16	Z16	X17	Y17	Z17	X18	Y18	Z18	X19	Y19	Z19	X20	Y20	Z20	X21	Y21	Z21	X22	Y22	Z22	X23	Y23	Z23	X24	Y24	Z24	X25	Y25	Z25	X26	Y26	Z26	X27	Y27	Z27	X28	Y28	Z28	X29	Y29	Z29	X30	Y30	Z30	X31	Y31	Z31	X32	Y32	Z32	X33	Y33	Z33	X34	Y34	Z34	X35	Y35	Z35	X36	Y36	Z36	X37	Y37	Z37	X38	Y38	Z38	X39	Y39	Z39	X40	Y40	Z40	X41	Y41	Z41	X42	Y42	Z42	X43	Y43	Z43	X44	Y44	Z44	X45	Y45	Z45	X46	Y46	Z46	X47	Y47	Z47	X48	Y48	Z48	X49	Y49	Z49	X50	Y50	Z50	X51	Y51	Z51	X52	Y52	Z52	X53	Y53	Z53	

1	0	-1319.531616210938	963.1826782226562	-13.01628017425537	-1295.011840820312	963.0833129882812	-152.1325073242188	-1299.99609375	1052.791137695312	-68.09821319580078	-1042.360595703125	1253.838623046875	-35.31272125244141	-1327.013305664062	1176.241577148438	-73.70394134521484	-1270.0595703125	1444.405029296875	-51.85931396484375	-1081.349975585938	1366.301879882812	-41.5375862121582	-1340.33447265625	1323.02587890625	37.41581726074219	-1286.329956054688	1398.502563476562	-157.5434112548828	-1170.75927734375	1422.719604492188	-220.2459411621094	-1155.857421875	1306.487915039062	-321.8167419433594	-1113.166625976562	1092.256591796875	-353.1385498046875	-1198.626586914062	1074.155517578125	-298.8592529296875	-1032.68896484375	890.4219970703125	-316.6486511230469	-1076.562133789062	875.94873046875	-375.8503723144531	-1089.75537109375	1005.850769042969	-365.3695373535156	-1015.787170410156	733.279541015625	-335.3151550292969	-1064.820190429688	798.8892211914062	-380.0047302246094	-1012.269714355469	807.9354858398438	-330.8033752441406	-1217.485595703125	1415.277587890625	116.9510650634766	-1237.740234375	1354.5595703125	191.8415679931641	-1209.782470703125	1066.896728515625	248.8394470214844	-1259.244384765625	1046.609741210938	208.1015777587891	-1090.073120117188	867.332275390625	209.4340362548828	-1159.176147460938	854.5604858398438	264.2701110839844	-1200.419921875	1009.155334472656	258.0885314941406	-1084.6025390625	711.3177490234375	239.81103515625	-1072.077880859375	770.5137939453125	232.3376770019531	-1140.284545898438	775.4796752929688	274.297607421875	-1227.85009765625	1620.666259765625	57.46598434448242	-1074.485961914062	1683.2080078125	-66.77028656005859	-1097.593139648438	1667.0439453125	60.82411193847656	-1212.594482421875	1643.814331054688	-118.2679672241211	-1146.5185546875	863.2112426757812	-247.2557830810547	-1231.976928710938	860.0147705078125	142.5323028564453	-1114.147338867188	897.1118774414062	100.4520797729492	-1058.4755859375	895.98583984375	-153.1521911621094	-1183.21142578125	447.229736328125	-228.6543579101562	-1139.823120117188	596.6221313476562	-239.092529296875	-1267.22900390625	43.78127670288086	-242.8438568115234	-1197.38330078125	303.1809997558594	-249.6606903076172	-1039.50537109375	43.77767181396484	-157.5764617919922	-1117.3984375	51.29731369018555	-135.2547454833984	-1113.524291992188	47.36010360717773	-248.5720520019531	-1316.5302734375	47.569580078125	-181.8684539794922	-1229.47265625	469.871337890625	140.4083251953125	-1194.974975585938	727.699951171875	165.4366149902344	-1295.115112304688	44.60599517822266	166.8449249267578	-1236.666748046875	331.1738586425781	159.2248382568359	-1082.39453125	48.15008163452148	110.2936553955078	-1146.9365234375	53.45204925537109	79.53572845458984	-1161.509521484375	47.50185012817383	188.1871795654297	-1361.288330078125	37.54215240478516	123.7308883666992	
2	0.01	-1319.336303710938	963.0808715820312	-12.87870502471924	-1294.836547851562	963.0100708007812	-152.0258941650391	-1299.835327148438	1052.693969726562	-67.9940185546875	-1042.320922851562	1253.826293945312	-35.22344970703125	-1326.856201171875	1176.132446289062	-73.56894683837891	-1270.013061523438	1444.322509765625	-51.61896514892578	-1081.302124023438	1366.229125976562	-41.47028732299805	-1340.327392578125	1322.88623046875	37.58401489257812	-1286.320922851562	1398.465087890625	-157.3201293945312	-1170.810913085938	1422.673583984375	-220.0862121582031	-1156.14208984375	1306.514892578125	-321.6831970214844	-1113.822875976562	1092.254516601562	-353.2781677246094	-1199.297119140625	1074.363891601562	-298.8302612304688	-1034.053955078125	890.0384521484375	-317.3919067382812	-1077.977783203125	875.8908081054688	-376.5517578125	-1090.827392578125	1005.843688964844	-365.7982482910156	-1018.000854492188	732.9035034179688	-336.4668273925781	-1066.68896484375	798.8441772460938	-380.9141845703125	-1013.9609375	807.4817504882812	-331.7970581054688	-1217.465209960938	1415.10546875	117.113883972168	-1237.7919921875	1354.369506835938	191.9923400878906	-1209.995971679688	1066.897827148438	249.3031005859375	-1259.357421875	1046.7109375	208.3592681884766	-1090.921752929688	866.7033081054688	210.8161315917969	-1160.4931640625	854.3842163085938	265.3609008789062	-1200.944580078125	1009.145874023438	258.73388671875	-1086.456909179688	710.6978149414062	241.7315826416016	-1073.691040039062	769.905517578125	234.114501953125	-1142.057739257812	775.3199462890625	275.8494262695312	-1227.345458984375	1620.904663085938	57.57440185546875	-1074.27685546875	1683.017456054688	-67.24573516845703	-1097.084228515625	1667.186157226562	60.36140060424805	-1212.688598632812	1643.61474609375	-118.3094024658203	-1146.35595703125	863.2154541015625	-247.1947479248047	-1231.679931640625	859.9405517578125	142.6683044433594	-1113.90185546875	897.032958984375	100.4612731933594	-1058.291748046875	895.96923828125	-153.1161041259766	-1183.038330078125	447.2278747558594	-228.6074371337891	-1139.649536132812	596.6420288085938	-239.0387115478516	-1267.232543945312	43.78631591796875	-242.8418884277344	-1197.2490234375	303.1441345214844	-249.6129608154297	-1039.500244140625	43.76982879638672	-157.5712280273438	-1117.396362304688	51.28357315063477	-135.2498016357422	-1113.54248046875	47.35134124755859	-248.5680999755859	-1316.535034179688	47.57543563842773	-181.8560333251953	-1229.293701171875	469.8301696777344	140.4408416748047	-1194.671264648438	727.5919189453125	165.5423431396484	-1295.112060546875	44.600830078125	166.8576507568359	-1236.534545898438	331.1553039550781	159.2607727050781	-1082.39208984375	48.14924621582031	110.2906341552734	-1146.940673828125	53.44880294799805	79.5352783203125	-1161.505859375	47.4902229309082	188.1859436035156	-1361.284301757812	37.54274368286133	123.7397842407227	
3	0.02	-1319.097290039062	962.9459838867188	-12.70442771911621	-1294.627197265625	962.91552734375	-151.8914642333984	-1299.6396484375	1052.57421875	-67.86018371582031	-1042.25341796875	1253.81103515625	-35.11807632446289	-1326.661499023438	1175.996337890625	-73.39888763427734	-1269.956298828125	1444.220703125	-51.31507110595703	-1081.242797851562	1366.146606445312	-41.39115524291992	-1340.307495117188	1322.712768554688	37.78953170776367	-1286.311401367188	1398.419189453125	-157.0539245605469	-1170.869384765625	1422.62158203125	-219.8872985839844	-1156.491333007812	1306.532592773438	-321.5214233398438	-1114.695068359375	1092.253662109375	-353.4490051269531	-1200.14501953125	1074.624389648438	-298.7698364257812	-1035.789916992188	889.5589599609375	-318.302001953125	-1079.822875976562	875.8133544921875	-377.3987731933594	-1092.184204101562	1005.827026367188	-366.30908203125	-1020.766906738281	732.42333984375	-337.8726501464844	-1069.060668945312	798.7733764648438	-382.0098876953125	-1016.142883300781	806.9103393554688	-333.0134582519531	-1217.437255859375	1414.897094726562	117.3150329589844	-1237.83837890625	1354.141479492188	192.1810913085938	-1210.245849609375	1066.912353515625	249.8539428710938	-1259.460327148438	1046.86083984375	208.6172485351562	-1092.112426757812	865.8799438476562	212.5570068359375	-1162.219360351562	854.1715087890625	266.7289428710938	-1201.61669921875	1009.149047851562	259.5262451171875	-1088.919799804688	709.9188842773438	244.1668853759766	-1075.818725585938	769.1101684570312	236.3714447021484	-1144.386596679688	775.1149291992188	277.7859802246094	-1226.717529296875	1621.217041015625	57.69553756713867	-1074.008178710938	1682.775512695312	-67.84690093994141	-1096.435668945312	1667.352661132812	59.79525756835938	-1212.776611328125	1643.374633789062	-118.355110168457	-1146.178955078125	863.2239990234375	-247.1335906982422	-1231.304077148438	859.8348999023438	142.8387451171875	-1113.603881835938	896.9379272460938	100.467887878418	-1058.082885742188	895.9517211914062	-153.0794677734375	-1182.819458007812	447.2264709472656	-228.5567626953125	-1139.436157226562	596.662353515625	-238.9750366210938	-1267.237670898438	43.79276657104492	-242.8379516601562	-1197.08837890625	303.1015319824219	-249.5577087402344	-1039.494018554688	43.76037216186523	-157.5647277832031	-1117.389282226562	51.27070236206055	-135.2418670654297	-1113.558837890625	47.34265899658203	-248.5632781982422	-1316.539428710938	47.58074951171875	-181.8427124023438	-1229.06640625	469.7734069824219	140.4821014404297	-1194.26513671875	727.4491577148438	165.6477355957031	-1295.107177734375	44.59527969360352	166.8714141845703	-1236.372924804688	331.1295776367188	159.3076477050781	-1082.388305664062	48.14772415161133	110.286506652832	-1146.944213867188	53.44528961181641	79.53462219238281	-1161.5009765625	47.47803497314453	188.183837890625	-1361.279174804688	37.54317474365234	123.7498397827148	
4	0.03	-1318.82666015625	962.7809448242188	-12.50026607513428	-1294.3974609375	962.8034057617188	-151.7345123291016	-1299.420532226562	1052.438598632812	-67.7012939453125	-1042.154663085938	1253.793823242188	-35.00485229492188	-1326.43798828125	1175.841064453125	-73.20127868652344	-1269.892211914062	1444.105224609375	-50.960205078125	-1081.174560546875	1366.06103515625	-41.3061408996582	-1340.27001953125	1322.514892578125	38.02388381958008	-1286.3017578125	1398.367919921875	-156.7605133056641	-1170.932495117188	1422.567993164062	-219.6595916748047	-1156.8896484375	1306.536254882812	-321.3447265625	-1115.763916015625	1092.253662109375	-353.6388854980469	-1201.138671875	1074.925537109375	-298.668212890625	-1037.832397460938	889.0046997070312	-319.3287048339844	-1082.0478515625	875.7184448242188	-378.3384704589844	-1093.775634765625	1005.797424316406	-366.866943359375	-1023.964050292969	731.8599243164062	-339.4494018554688	-1071.848510742188	798.673095703125	-383.2228698730469	-1018.733520507812	806.251708984375	-334.3847045898438	-1217.39892578125	1414.664794921875	117.5445175170898	-1237.86474609375	1353.889892578125	192.3993530273438	-1210.513671875	1066.946044921875	250.4560546875	-1259.54296875	1047.066162109375	208.8541412353516	-1093.64794921875	864.8839721679688	214.5883636474609	-1164.318115234375	853.9366455078125	268.3156127929688	-1202.413696289062	1009.171997070312	260.4232177734375	-1091.956420898438	709.0134887695312	247.024169921875	-1078.42529296875	768.1478881835938	239.0269927978516	-1147.22314453125	774.8718872070312	280.0184631347656	-1225.99365234375	1621.59716796875	57.81620407104492	-1073.686889648438	1682.48828125	-68.54821014404297	-1095.667236328125	1667.531494140625	59.15568161010742	-1212.840087890625	1643.109008789062	-118.4003753662109	-1145.9990234375	863.2357177734375	-247.0767822265625	-1230.864379882812	859.6981201171875	143.0356597900391	-1113.275756835938	896.833251953125	100.4709701538086	-1057.86328125	895.9364013671875	-153.048828125	-1182.5654296875	447.2262878417969	-228.5076599121094	-1139.19677734375	596.6798095703125	-238.9069366455078	-1267.244018554688	43.79998397827148	-242.8314666748047	-1196.912475585938	303.0560607910156	-249.4988861083984	-1039.486694335938	43.74973678588867	-157.5570526123047	-1117.375	51.26105499267578	-135.2303466796875	-1113.5712890625	47.33407974243164	-248.5574035644531	-1316.5419921875	47.58418273925781	-181.8299865722656	-1228.798217773438	469.7029418945312	140.5288543701172	-1193.766723632812	727.27978515625	165.7411193847656	-1295.100952148438	44.59056091308594	166.8848571777344	-1236.190185546875	331.0971374511719	159.3631744384766	-1082.382934570312	48.14536666870117	110.2815093994141	-1146.946166992188	53.44183731079102	79.53372955322266	-1161.4951171875	47.46738433837891	188.1809234619141	-1361.274169921875	37.5438346862793	123.7608032226562	
